<svg aria-hidden="true" style="position: absolute; width: 0; height: 0; overflow: hidden;" version="1.1" xmlns="http://www.w3.org/2000/svg" xmlns:xlink="http://www.w3.org/1999/xlink">
<defs>
<symbol id="icon-en" viewBox="0 0 32 32">
<title>en</title>
<path fill="#006" style="fill: var(--color1, #006)" d="M-16 0h64v32h-64z"></path>
<path fill="#fff" style="fill: var(--color2, #fff)" d="M-16 0v3.578l56.845 28.422h7.155v-3.578l-56.845-28.416h-7.155zM48 0v3.578l-56.845 28.422h-7.155v-3.578l56.845-28.422h7.155z"></path>
<path fill="#fff" style="fill: var(--color2, #fff)" d="M10.669 0v32h10.662v-32h-10.662zM-16 10.669v10.662h64v-10.662h-64z"></path>
<path fill="#c00" style="fill: var(--color3, #c00)" d="M-16 12.8v6.4h64v-6.4h-64zM12.8 0v32h6.4v-32h-6.4zM-16 32l21.331-10.669h4.781l-21.344 10.669h-4.768zM-16 0l21.331 10.669h-4.768l-16.563-8.282v-2.387zM21.894 10.669l21.338-10.669h4.768l-21.331 10.669h-4.781zM48.006 32l-21.344-10.669h4.768l16.57 8.282v2.387z"></path>
</symbol>
<symbol id="icon-fr" viewBox="0 0 32 32">
<title>fr</title>
<path fill="#fff" style="fill: var(--color2, #fff)" d="M0 0h32v32h-32z"></path>
<path fill="#00267f" style="fill: var(--color4, #00267f)" d="M0 0h10.669v32h-10.669z"></path>
<path fill="#f31830" style="fill: var(--color5, #f31830)" d="M21.331 0h10.669v32h-10.669z"></path>
</symbol>
<symbol id="icon-cn" viewBox="0 0 32 32">
<title>cn</title>
<path fill="#de2910" style="fill: var(--color6, #de2910)" d="M0 0h32v32h-32z"></path>
<path fill="#ffde00" style="fill: var(--color7, #ffde00)" d="M12.8 6.56l-8.16 5.28 3.36-8.64 2.88 8.64-7.68-5.28z"></path>
<path fill="#ffde00" style="fill: var(--color7, #ffde00)" d="M14.786 2.066l2.908 1.424-3.043 0.523 1.973-2.305-0.19 3.099z"></path>
<path fill="#ffde00" style="fill: var(--color7, #ffde00)" d="M18.492 4.888l2.126 2.445-3.009-0.703 2.716-1.356-1.382 2.782z"></path>
<path fill="#ffde00" style="fill: var(--color7, #ffde00)" d="M19.161 9.533l0.943 3.101-2.461-1.871 3.035-0.129-2.399 1.977z"></path>
<path fill="#ffde00" style="fill: var(--color7, #ffde00)" d="M16.626 12.852l-0.327 3.222-1.546-2.674 2.846 1.051-2.973 0.897z"></path>
</symbol>
<symbol id="icon-gitter" viewBox="0 0 32 32">
<title>Gitter</title>
<path d="M11.335 5.335h2.665v26.665h-2.665v-26.665zM20.667 5.335v26.665h-2.667v-26.665h2.667zM4.667 0h2.668v20h-2.668v-20zM24.667 5.335h2.667v14.665h-2.667v-14.665z"></path>
</symbol>
<symbol id="icon-github" viewBox="0 0 24 28">
<title>GitHub</title>
<path d="M12 2c6.625 0 12 5.375 12 12 0 5.297-3.437 9.797-8.203 11.391-0.609 0.109-0.828-0.266-0.828-0.578 0-0.391 0.016-1.687 0.016-3.297 0-1.125-0.375-1.844-0.812-2.219 2.672-0.297 5.484-1.313 5.484-5.922 0-1.313-0.469-2.375-1.234-3.219 0.125-0.313 0.531-1.531-0.125-3.187-1-0.313-3.297 1.234-3.297 1.234-0.953-0.266-1.984-0.406-3-0.406s-2.047 0.141-3 0.406c0 0-2.297-1.547-3.297-1.234-0.656 1.656-0.25 2.875-0.125 3.187-0.766 0.844-1.234 1.906-1.234 3.219 0 4.594 2.797 5.625 5.469 5.922-0.344 0.313-0.656 0.844-0.766 1.609-0.688 0.313-2.438 0.844-3.484-1-0.656-1.141-1.844-1.234-1.844-1.234-1.172-0.016-0.078 0.734-0.078 0.734 0.781 0.359 1.328 1.75 1.328 1.75 0.703 2.141 4.047 1.422 4.047 1.422 0 1 0.016 1.937 0.016 2.234 0 0.313-0.219 0.688-0.828 0.578-4.766-1.594-8.203-6.094-8.203-11.391 0-6.625 5.375-12 12-12zM4.547 19.234c0.031-0.063-0.016-0.141-0.109-0.187-0.094-0.031-0.172-0.016-0.203 0.031-0.031 0.063 0.016 0.141 0.109 0.187 0.078 0.047 0.172 0.031 0.203-0.031zM5.031 19.766c0.063-0.047 0.047-0.156-0.031-0.25-0.078-0.078-0.187-0.109-0.25-0.047-0.063 0.047-0.047 0.156 0.031 0.25 0.078 0.078 0.187 0.109 0.25 0.047zM5.5 20.469c0.078-0.063 0.078-0.187 0-0.297-0.063-0.109-0.187-0.156-0.266-0.094-0.078 0.047-0.078 0.172 0 0.281s0.203 0.156 0.266 0.109zM6.156 21.125c0.063-0.063 0.031-0.203-0.063-0.297-0.109-0.109-0.25-0.125-0.313-0.047-0.078 0.063-0.047 0.203 0.063 0.297 0.109 0.109 0.25 0.125 0.313 0.047zM7.047 21.516c0.031-0.094-0.063-0.203-0.203-0.25-0.125-0.031-0.266 0.016-0.297 0.109s0.063 0.203 0.203 0.234c0.125 0.047 0.266 0 0.297-0.094zM8.031 21.594c0-0.109-0.125-0.187-0.266-0.172-0.141 0-0.25 0.078-0.25 0.172 0 0.109 0.109 0.187 0.266 0.172 0.141 0 0.25-0.078 0.25-0.172zM8.937 21.438c-0.016-0.094-0.141-0.156-0.281-0.141-0.141 0.031-0.234 0.125-0.219 0.234 0.016 0.094 0.141 0.156 0.281 0.125s0.234-0.125 0.219-0.219z"></path>
</symbol>
<symbol id="icon-twitter" viewBox="0 0 26 28">
<title>Twitter</title>
<path d="M25.312 6.375c-0.688 1-1.547 1.891-2.531 2.609 0.016 0.219 0.016 0.438 0.016 0.656 0 6.672-5.078 14.359-14.359 14.359-2.859 0-5.516-0.828-7.75-2.266 0.406 0.047 0.797 0.063 1.219 0.063 2.359 0 4.531-0.797 6.266-2.156-2.219-0.047-4.078-1.5-4.719-3.5 0.313 0.047 0.625 0.078 0.953 0.078 0.453 0 0.906-0.063 1.328-0.172-2.312-0.469-4.047-2.5-4.047-4.953v-0.063c0.672 0.375 1.453 0.609 2.281 0.641-1.359-0.906-2.25-2.453-2.25-4.203 0-0.938 0.25-1.797 0.688-2.547 2.484 3.062 6.219 5.063 10.406 5.281-0.078-0.375-0.125-0.766-0.125-1.156 0-2.781 2.25-5.047 5.047-5.047 1.453 0 2.766 0.609 3.687 1.594 1.141-0.219 2.234-0.641 3.203-1.219-0.375 1.172-1.172 2.156-2.219 2.781 1.016-0.109 2-0.391 2.906-0.781z"></path>
</symbol>
<symbol id="icon-reddit-alien" viewBox="0 0 28 28">
<title>Reddit</title>
<path d="M28 13.219c0 1.219-0.688 2.266-1.703 2.781 0.125 0.484 0.187 0.984 0.187 1.5 0 4.937-5.578 8.937-12.453 8.937-6.859 0-12.437-4-12.437-8.937 0-0.5 0.063-1 0.172-1.469-1.047-0.516-1.766-1.578-1.766-2.812 0-1.719 1.391-3.109 3.109-3.109 0.891 0 1.687 0.375 2.266 0.984 2.109-1.469 4.922-2.422 8.047-2.531l1.813-8.141c0.063-0.281 0.359-0.469 0.641-0.406l5.766 1.266c0.375-0.75 1.172-1.281 2.078-1.281 1.297 0 2.344 1.047 2.344 2.328 0 1.297-1.047 2.344-2.344 2.344-1.281 0-2.328-1.047-2.328-2.328l-5.219-1.156-1.625 7.375c3.141 0.094 5.984 1.031 8.109 2.5 0.562-0.594 1.359-0.953 2.234-0.953 1.719 0 3.109 1.391 3.109 3.109zM6.531 16.328c0 1.297 1.047 2.344 2.328 2.344 1.297 0 2.344-1.047 2.344-2.344 0-1.281-1.047-2.328-2.344-2.328-1.281 0-2.328 1.047-2.328 2.328zM19.187 21.875c0.234-0.234 0.234-0.578 0-0.812-0.219-0.219-0.578-0.219-0.797 0-0.938 0.953-2.953 1.281-4.391 1.281s-3.453-0.328-4.391-1.281c-0.219-0.219-0.578-0.219-0.797 0-0.234 0.219-0.234 0.578 0 0.812 1.484 1.484 4.344 1.594 5.187 1.594s3.703-0.109 5.187-1.594zM19.141 18.672c1.281 0 2.328-1.047 2.328-2.344 0-1.281-1.047-2.328-2.328-2.328-1.297 0-2.344 1.047-2.344 2.328 0 1.297 1.047 2.344 2.344 2.344z"></path>
</symbol>
<symbol id="icon-telegram" viewBox="0 0 28 28">
<title>Telegram</title>
<path d="M18.578 20.422l2.297-10.828c0.203-0.953-0.344-1.328-0.969-1.094l-13.5 5.203c-0.922 0.359-0.906 0.875-0.156 1.109l3.453 1.078 8.016-5.047c0.375-0.25 0.719-0.109 0.438 0.141l-6.484 5.859-0.25 3.563c0.359 0 0.516-0.156 0.703-0.344l1.687-1.625 3.5 2.578c0.641 0.359 1.094 0.172 1.266-0.594zM28 14c0 7.734-6.266 14-14 14s-14-6.266-14-14 6.266-14 14-14 14 6.266 14 14z"></path>
</symbol>
<symbol id="icon-facebook-square" viewBox="0 0 24 28">
<title>Facebook</title>
<path d="M19.5 2c2.484 0 4.5 2.016 4.5 4.5v15c0 2.484-2.016 4.5-4.5 4.5h-2.938v-9.297h3.109l0.469-3.625h-3.578v-2.312c0-1.047 0.281-1.75 1.797-1.75l1.906-0.016v-3.234c-0.328-0.047-1.469-0.141-2.781-0.141-2.766 0-4.672 1.687-4.672 4.781v2.672h-3.125v3.625h3.125v9.297h-8.313c-2.484 0-4.5-2.016-4.5-4.5v-15c0-2.484 2.016-4.5 4.5-4.5h15z"></path>
</symbol>
</defs>
</svg>
